<svg width="875" height="185" xmlns="http://www.w3.org/2000/svg">
<defs><style>
@keyframes revealDiag { 0% { clip-path: polygon(0 0, 0 0, 0 100%); } 100% { clip-path: polygon(0 0, 100% 0, 100% 100%, 0 100%); } }
.heatmap { animation: revealDiag 2s ease-out forwards; }
.cell { stroke: #e0e0e0; stroke-width: 1; }
</style></defs>
<g class="heatmap">
<rect width="875" height="185" fill="#ffffff"/>
<text x="55" y="30" font-size="11" fill="#666">Jan</text>
<text x="115" y="30" font-size="11" fill="#666">Feb</text>
<text x="175" y="30" font-size="11" fill="#666">Mar</text>
<text x="235" y="30" font-size="11" fill="#666">Apr</text>
<text x="295" y="30" font-size="11" fill="#666">May</text>
<text x="355" y="30" font-size="11" fill="#666">Jun</text>
<text x="415" y="30" font-size="11" fill="#666">Jul</text>
<text x="475" y="30" font-size="11" fill="#666">Aug</text>
<text x="535" y="30" font-size="11" fill="#666">Sep</text>
<text x="595" y="30" font-size="11" fill="#666">Oct</text>
<text x="655" y="30" font-size="11" fill="#666">Nov</text>
<text x="715" y="30" font-size="11" fill="#666">Dec</text>
<text x="10" y="61" font-size="11" fill="#666">Mon</text>
<text x="10" y="91" font-size="11" fill="#666">Wed</text>
<text x="10" y="121" font-size="11" fill="#666">Fri</text>
<text x="10" y="151" font-size="11" fill="#666">Sun</text>
<rect class="cell" x="40" y="40" width="13" height="13" fill="#ebedf0"/>
<rect class="cell" x="40" y="55" width="13" height="13" fill="#ebedf0"/>
<rect class="cell" x="40" y="70" width="13" height="13" fill="#ebedf0"/>
<rect class="cell" x="40" y="85" width="13" height="13" fill="#ebedf0"/>
<rect class="cell" x="40" y="100" width="13" height="13" fill="#ebedf0"/>
<rect class="cell" x="40" y="115" width="13" height="13" fill="#ebedf0"/>
<rect class="cell" x="40" y="130" width="13" height="13" fill="#ebedf0"/>
<rect class="cell" x="55" y="40" width="13" height="13" fill="#ebedf0"/>
<rect class="cell" x="55" y="55" width="13" height="13" fill="#ebedf0"/>
<rect class="cell" x="55" y="70" width="13" height="13" fill="#ebedf0"/>
<rect class="cell" x="55" y="85" width="13" height="13" fill="#ebedf0"/>
<rect class="cell" x="55" y="100" width="13" height="13" fill="#ebedf0"/>
<rect class="cell" x="55" y="115" width="13" height="13" fill="#ebedf0"/>
<rect class="cell" x="55" y="130" width="13" height="13" fill="#ebedf0"/>
<rect class="cell" x="70" y="40" width="13" height="13" fill="#ebedf0"/>
<rect class="cell" x="70" y="55" width="13" height="13" fill="#ebedf0"/>
<rect class="cell" x="70" y="70" width="13" height="13" fill="#ebedf0"/>
<rect class="cell" x="70" y="85" width="13" height="13" fill="#ebedf0"/>
<rect class="cell" x="70" y="100" width="13" height="13" fill="#ebedf0"/>
<rect class="cell" x="70" y="115" width="13" height="13" fill="#ebedf0"/>
<rect class="cell" x="70" y="130" width="13" height="13" fill="#ebedf0"/>
<rect class="cell" x="85" y="40" width="13" height="13" fill="#ebedf0"/>
<rect class="cell" x="85" y="55" width="13" height="13" fill="#ebedf0"/>
<rect class="cell" x="85" y="70" width="13" height="13" fill="#ebedf0"/>
<rect class="cell" x="85" y="85" width="13" height="13" fill="#ebedf0"/>
<rect class="cell" x="85" y="100" width="13" height="13" fill="#ebedf0"/>
<rect class="cell" x="85" y="115" width="13" height="13" fill="#ebedf0"/>
<rect class="cell" x="85" y="130" width="13" height="13" fill="#ebedf0"/>
<rect class="cell" x="100" y="40" width="13" height="13" fill="#ebedf0"/>
<rect class="cell" x="100" y="55" width="13" height="13" fill="#ebedf0"/>
<rect class="cell" x="100" y="70" width="13" height="13" fill="#ebedf0"/>
<rect class="cell" x="100" y="85" width="13" height="13" fill="#ebedf0"/>
<rect class="cell" x="100" y="100" width="13" height="13" fill="#ebedf0"/>
<rect class="cell" x="100" y="115" width="13" height="13" fill="#ebedf0"/>
<rect class="cell" x="100" y="130" width="13" height="13" fill="#ebedf0"/>
<rect class="cell" x="115" y="40" width="13" height="13" fill="#ebedf0"/>
<rect class="cell" x="115" y="55" width="13" height="13" fill="#ebedf0"/>
<rect class="cell" x="115" y="70" width="13" height="13" fill="#ebedf0"/>
<rect class="cell" x="115" y="85" width="13" height="13" fill="#ebedf0"/>
<rect class="cell" x="115" y="100" width="13" height="13" fill="#ebedf0"/>
<rect class="cell" x="115" y="115" width="13" height="13" fill="#ebedf0"/>
<rect class="cell" x="115" y="130" width="13" height="13" fill="#ebedf0"/>
<rect class="cell" x="130" y="40" width="13" height="13" fill="#ebedf0"/>
<rect class="cell" x="130" y="55" width="13" height="13" fill="#ebedf0"/>
<rect class="cell" x="130" y="70" width="13" height="13" fill="#ebedf0"/>
<rect class="cell" x="130" y="85" width="13" height="13" fill="#ebedf0"/>
<rect class="cell" x="130" y="100" width="13" height="13" fill="#ebedf0"/>
<rect class="cell" x="130" y="115" width="13" height="13" fill="#ebedf0"/>
<rect class="cell" x="130" y="130" width="13" height="13" fill="#ebedf0"/>
<rect class="cell" x="145" y="40" width="13" height="13" fill="#108548"/>
<rect class="cell" x="145" y="55" width="13" height="13" fill="#239a3b"/>
<rect class="cell" x="145" y="70" width="13" height="13" fill="#239a3b"/>
<rect class="cell" x="145" y="85" width="13" height="13" fill="#108548"/>
<rect class="cell" x="145" y="100" width="13" height="13" fill="#ebedf0"/>
<rect class="cell" x="145" y="115" width="13" height="13" fill="#ebedf0"/>
<rect class="cell" x="145" y="130" width="13" height="13" fill="#ebedf0"/>
<rect class="cell" x="160" y="40" width="13" height="13" fill="#ebedf0"/>
<rect class="cell" x="160" y="55" width="13" height="13" fill="#ebedf0"/>
<rect class="cell" x="160" y="70" width="13" height="13" fill="#ebedf0"/>
<rect class="cell" x="160" y="85" width="13" height="13" fill="#ebedf0"/>
<rect class="cell" x="160" y="100" width="13" height="13" fill="#ebedf0"/>
<rect class="cell" x="160" y="115" width="13" height="13" fill="#ebedf0"/>
<rect class="cell" x="160" y="130" width="13" height="13" fill="#ebedf0"/>
<rect class="cell" x="175" y="40" width="13" height="13" fill="#ebedf0"/>
<rect class="cell" x="175" y="55" width="13" height="13" fill="#ebedf0"/>
<rect class="cell" x="175" y="70" width="13" height="13" fill="#ebedf0"/>
<rect class="cell" x="175" y="85" width="13" height="13" fill="#ebedf0"/>
<rect class="cell" x="175" y="100" width="13" height="13" fill="#ebedf0"/>
<rect class="cell" x="175" y="115" width="13" height="13" fill="#ebedf0"/>
<rect class="cell" x="175" y="130" width="13" height="13" fill="#ebedf0"/>
<rect class="cell" x="190" y="40" width="13" height="13" fill="#ebedf0"/>
<rect class="cell" x="190" y="55" width="13" height="13" fill="#ebedf0"/>
<rect class="cell" x="190" y="70" width="13" height="13" fill="#ebedf0"/>
<rect class="cell" x="190" y="85" width="13" height="13" fill="#ebedf0"/>
<rect class="cell" x="190" y="100" width="13" height="13" fill="#ebedf0"/>
<rect class="cell" x="190" y="115" width="13" height="13" fill="#ebedf0"/>
<rect class="cell" x="190" y="130" width="13" height="13" fill="#ebedf0"/>
<rect class="cell" x="205" y="40" width="13" height="13" fill="#ebedf0"/>
<rect class="cell" x="205" y="55" width="13" height="13" fill="#ebedf0"/>
<rect class="cell" x="205" y="70" width="13" height="13" fill="#ebedf0"/>
<rect class="cell" x="205" y="85" width="13" height="13" fill="#ebedf0"/>
<rect class="cell" x="205" y="100" width="13" height="13" fill="#ebedf0"/>
<rect class="cell" x="205" y="115" width="13" height="13" fill="#ebedf0"/>
<rect class="cell" x="205" y="130" width="13" height="13" fill="#ebedf0"/>
<rect class="cell" x="220" y="40" width="13" height="13" fill="#ebedf0"/>
<rect class="cell" x="220" y="55" width="13" height="13" fill="#ebedf0"/>
<rect class="cell" x="220" y="70" width="13" height="13" fill="#ebedf0"/>
<rect class="cell" x="220" y="85" width="13" height="13" fill="#ebedf0"/>
<rect class="cell" x="220" y="100" width="13" height="13" fill="#ebedf0"/>
<rect class="cell" x="220" y="115" width="13" height="13" fill="#ebedf0"/>
<rect class="cell" x="220" y="130" width="13" height="13" fill="#ebedf0"/>
<rect class="cell" x="235" y="40" width="13" height="13" fill="#ebedf0"/>
<rect class="cell" x="235" y="55" width="13" height="13" fill="#ebedf0"/>
<rect class="cell" x="235" y="70" width="13" height="13" fill="#ebedf0"/>
<rect class="cell" x="235" y="85" width="13" height="13" fill="#ebedf0"/>
<rect class="cell" x="235" y="100" width="13" height="13" fill="#ebedf0"/>
<rect class="cell" x="235" y="115" width="13" height="13" fill="#ebedf0"/>
<rect class="cell" x="235" y="130" width="13" height="13" fill="#ebedf0"/>
<rect class="cell" x="250" y="40" width="13" height="13" fill="#ebedf0"/>
<rect class="cell" x="250" y="55" width="13" height="13" fill="#ebedf0"/>
<rect class="cell" x="250" y="70" width="13" height="13" fill="#ebedf0"/>
<rect class="cell" x="250" y="85" width="13" height="13" fill="#ebedf0"/>
<rect class="cell" x="250" y="100" width="13" height="13" fill="#7bc96f"/>
<rect class="cell" x="250" y="115" width="13" height="13" fill="#108548"/>
<rect class="cell" x="250" y="130" width="13" height="13" fill="#239a3b"/>
<rect class="cell" x="265" y="40" width="13" height="13" fill="#239a3b"/>
<rect class="cell" x="265" y="55" width="13" height="13" fill="#ebedf0"/>
<rect class="cell" x="265" y="70" width="13" height="13" fill="#ebedf0"/>
<rect class="cell" x="265" y="85" width="13" height="13" fill="#ebedf0"/>
<rect class="cell" x="265" y="100" width="13" height="13" fill="#ebedf0"/>
<rect class="cell" x="265" y="115" width="13" height="13" fill="#ebedf0"/>
<rect class="cell" x="265" y="130" width="13" height="13" fill="#ebedf0"/>
<rect class="cell" x="280" y="40" width="13" height="13" fill="#ebedf0"/>
<rect class="cell" x="280" y="55" width="13" height="13" fill="#ebedf0"/>
<rect class="cell" x="280" y="70" width="13" height="13" fill="#ebedf0"/>
<rect class="cell" x="280" y="85" width="13" height="13" fill="#ebedf0"/>
<rect class="cell" x="280" y="100" width="13" height="13" fill="#ebedf0"/>
<rect class="cell" x="280" y="115" width="13" height="13" fill="#ebedf0"/>
<rect class="cell" x="280" y="130" width="13" height="13" fill="#ebedf0"/>
<rect class="cell" x="295" y="40" width="13" height="13" fill="#ebedf0"/>
<rect class="cell" x="295" y="55" width="13" height="13" fill="#ebedf0"/>
<rect class="cell" x="295" y="70" width="13" height="13" fill="#ebedf0"/>
<rect class="cell" x="295" y="85" width="13" height="13" fill="#ebedf0"/>
<rect class="cell" x="295" y="100" width="13" height="13" fill="#ebedf0"/>
<rect class="cell" x="295" y="115" width="13" height="13" fill="#ebedf0"/>
<rect class="cell" x="295" y="130" width="13" height="13" fill="#ebedf0"/>
<rect class="cell" x="310" y="40" width="13" height="13" fill="#ebedf0"/>
<rect class="cell" x="310" y="55" width="13" height="13" fill="#ebedf0"/>
<rect class="cell" x="310" y="70" width="13" height="13" fill="#ebedf0"/>
<rect class="cell" x="310" y="85" width="13" height="13" fill="#ebedf0"/>
<rect class="cell" x="310" y="100" width="13" height="13" fill="#ebedf0"/>
<rect class="cell" x="310" y="115" width="13" height="13" fill="#ebedf0"/>
<rect class="cell" x="310" y="130" width="13" height="13" fill="#ebedf0"/>
<rect class="cell" x="325" y="40" width="13" height="13" fill="#ebedf0"/>
<rect class="cell" x="325" y="55" width="13" height="13" fill="#ebedf0"/>
<rect class="cell" x="325" y="70" width="13" height="13" fill="#ebedf0"/>
<rect class="cell" x="325" y="85" width="13" height="13" fill="#ebedf0"/>
<rect class="cell" x="325" y="100" width="13" height="13" fill="#ebedf0"/>
<rect class="cell" x="325" y="115" width="13" height="13" fill="#ebedf0"/>
<rect class="cell" x="325" y="130" width="13" height="13" fill="#ebedf0"/>
<rect class="cell" x="340" y="40" width="13" height="13" fill="#ebedf0"/>
<rect class="cell" x="340" y="55" width="13" height="13" fill="#ebedf0"/>
<rect class="cell" x="340" y="70" width="13" height="13" fill="#c6e48b"/>
<rect class="cell" x="340" y="85" width="13" height="13" fill="#ebedf0"/>
<rect class="cell" x="340" y="100" width="13" height="13" fill="#ebedf0"/>
<rect class="cell" x="340" y="115" width="13" height="13" fill="#ebedf0"/>
<rect class="cell" x="340" y="130" width="13" height="13" fill="#ebedf0"/>
<rect class="cell" x="355" y="40" width="13" height="13" fill="#ebedf0"/>
<rect class="cell" x="355" y="55" width="13" height="13" fill="#ebedf0"/>
<rect class="cell" x="355" y="70" width="13" height="13" fill="#ebedf0"/>
<rect class="cell" x="355" y="85" width="13" height="13" fill="#ebedf0"/>
<rect class="cell" x="355" y="100" width="13" height="13" fill="#ebedf0"/>
<rect class="cell" x="355" y="115" width="13" height="13" fill="#ebedf0"/>
<rect class="cell" x="355" y="130" width="13" height="13" fill="#ebedf0"/>
<rect class="cell" x="370" y="40" width="13" height="13" fill="#ebedf0"/>
<rect class="cell" x="370" y="55" width="13" height="13" fill="#7bc96f"/>
<rect class="cell" x="370" y="70" width="13" height="13" fill="#239a3b"/>
<rect class="cell" x="370" y="85" width="13" height="13" fill="#239a3b"/>
<rect class="cell" x="370" y="100" width="13" height="13" fill="#239a3b"/>
<rect class="cell" x="370" y="115" width="13" height="13" fill="#ebedf0"/>
<rect class="cell" x="370" y="130" width="13" height="13" fill="#ebedf0"/>
<rect class="cell" x="385" y="40" width="13" height="13" fill="#ebedf0"/>
<rect class="cell" x="385" y="55" width="13" height="13" fill="#ebedf0"/>
<rect class="cell" x="385" y="70" width="13" height="13" fill="#ebedf0"/>
<rect class="cell" x="385" y="85" width="13" height="13" fill="#ebedf0"/>
<rect class="cell" x="385" y="100" width="13" height="13" fill="#ebedf0"/>
<rect class="cell" x="385" y="115" width="13" height="13" fill="#ebedf0"/>
<rect class="cell" x="385" y="130" width="13" height="13" fill="#ebedf0"/>
<rect class="cell" x="400" y="40" width="13" height="13" fill="#ebedf0"/>
<rect class="cell" x="400" y="55" width="13" height="13" fill="#ebedf0"/>
<rect class="cell" x="400" y="70" width="13" height="13" fill="#ebedf0"/>
<rect class="cell" x="400" y="85" width="13" height="13" fill="#ebedf0"/>
<rect class="cell" x="400" y="100" width="13" height="13" fill="#ebedf0"/>
<rect class="cell" x="400" y="115" width="13" height="13" fill="#ebedf0"/>
<rect class="cell" x="400" y="130" width="13" height="13" fill="#ebedf0"/>
<rect class="cell" x="415" y="40" width="13" height="13" fill="#ebedf0"/>
<rect class="cell" x="415" y="55" width="13" height="13" fill="#ebedf0"/>
<rect class="cell" x="415" y="70" width="13" height="13" fill="#ebedf0"/>
<rect class="cell" x="415" y="85" width="13" height="13" fill="#ebedf0"/>
<rect class="cell" x="415" y="100" width="13" height="13" fill="#ebedf0"/>
<rect class="cell" x="415" y="115" width="13" height="13" fill="#ebedf0"/>
<rect class="cell" x="415" y="130" width="13" height="13" fill="#ebedf0"/>
<rect class="cell" x="430" y="40" width="13" height="13" fill="#ebedf0"/>
<rect class="cell" x="430" y="55" width="13" height="13" fill="#ebedf0"/>
<rect class="cell" x="430" y="70" width="13" height="13" fill="#ebedf0"/>
<rect class="cell" x="430" y="85" width="13" height="13" fill="#ebedf0"/>
<rect class="cell" x="430" y="100" width="13" height="13" fill="#ebedf0"/>
<rect class="cell" x="430" y="115" width="13" height="13" fill="#ebedf0"/>
<rect class="cell" x="430" y="130" width="13" height="13" fill="#ebedf0"/>
<rect class="cell" x="445" y="40" width="13" height="13" fill="#ebedf0"/>
<rect class="cell" x="445" y="55" width="13" height="13" fill="#ebedf0"/>
<rect class="cell" x="445" y="70" width="13" height="13" fill="#ebedf0"/>
<rect class="cell" x="445" y="85" width="13" height="13" fill="#ebedf0"/>
<rect class="cell" x="445" y="100" width="13" height="13" fill="#ebedf0"/>
<rect class="cell" x="445" y="115" width="13" height="13" fill="#ebedf0"/>
<rect class="cell" x="445" y="130" width="13" height="13" fill="#ebedf0"/>
<rect class="cell" x="460" y="40" width="13" height="13" fill="#ebedf0"/>
<rect class="cell" x="460" y="55" width="13" height="13" fill="#ebedf0"/>
<rect class="cell" x="460" y="70" width="13" height="13" fill="#ebedf0"/>
<rect class="cell" x="460" y="85" width="13" height="13" fill="#ebedf0"/>
<rect class="cell" x="460" y="100" width="13" height="13" fill="#ebedf0"/>
<rect class="cell" x="460" y="115" width="13" height="13" fill="#ebedf0"/>
<rect class="cell" x="460" y="130" width="13" height="13" fill="#ebedf0"/>
<rect class="cell" x="475" y="40" width="13" height="13" fill="#ebedf0"/>
<rect class="cell" x="475" y="55" width="13" height="13" fill="#ebedf0"/>
<rect class="cell" x="475" y="70" width="13" height="13" fill="#ebedf0"/>
<rect class="cell" x="475" y="85" width="13" height="13" fill="#ebedf0"/>
<rect class="cell" x="475" y="100" width="13" height="13" fill="#ebedf0"/>
<rect class="cell" x="475" y="115" width="13" height="13" fill="#108548"/>
<rect class="cell" x="475" y="130" width="13" height="13" fill="#239a3b"/>
<rect class="cell" x="490" y="40" width="13" height="13" fill="#239a3b"/>
<rect class="cell" x="490" y="55" width="13" height="13" fill="#239a3b"/>
<rect class="cell" x="490" y="70" width="13" height="13" fill="#ebedf0"/>
<rect class="cell" x="490" y="85" width="13" height="13" fill="#ebedf0"/>
<rect class="cell" x="490" y="100" width="13" height="13" fill="#ebedf0"/>
<rect class="cell" x="490" y="115" width="13" height="13" fill="#ebedf0"/>
<rect class="cell" x="490" y="130" width="13" height="13" fill="#ebedf0"/>
<rect class="cell" x="505" y="40" width="13" height="13" fill="#ebedf0"/>
<rect class="cell" x="505" y="55" width="13" height="13" fill="#ebedf0"/>
<rect class="cell" x="505" y="70" width="13" height="13" fill="#ebedf0"/>
<rect class="cell" x="505" y="85" width="13" height="13" fill="#ebedf0"/>
<rect class="cell" x="505" y="100" width="13" height="13" fill="#ebedf0"/>
<rect class="cell" x="505" y="115" width="13" height="13" fill="#ebedf0"/>
<rect class="cell" x="505" y="130" width="13" height="13" fill="#ebedf0"/>
<rect class="cell" x="520" y="40" width="13" height="13" fill="#ebedf0"/>
<rect class="cell" x="520" y="55" width="13" height="13" fill="#ebedf0"/>
<rect class="cell" x="520" y="70" width="13" height="13" fill="#ebedf0"/>
<rect class="cell" x="520" y="85" width="13" height="13" fill="#ebedf0"/>
<rect class="cell" x="520" y="100" width="13" height="13" fill="#ebedf0"/>
<rect class="cell" x="520" y="115" width="13" height="13" fill="#ebedf0"/>
<rect class="cell" x="520" y="130" width="13" height="13" fill="#ebedf0"/>
<rect class="cell" x="535" y="40" width="13" height="13" fill="#ebedf0"/>
<rect class="cell" x="535" y="55" width="13" height="13" fill="#ebedf0"/>
<rect class="cell" x="535" y="70" width="13" height="13" fill="#ebedf0"/>
<rect class="cell" x="535" y="85" width="13" height="13" fill="#ebedf0"/>
<rect class="cell" x="535" y="100" width="13" height="13" fill="#ebedf0"/>
<rect class="cell" x="535" y="115" width="13" height="13" fill="#ebedf0"/>
<rect class="cell" x="535" y="130" width="13" height="13" fill="#ebedf0"/>
<rect class="cell" x="550" y="40" width="13" height="13" fill="#ebedf0"/>
<rect class="cell" x="550" y="55" width="13" height="13" fill="#ebedf0"/>
<rect class="cell" x="550" y="70" width="13" height="13" fill="#ebedf0"/>
<rect class="cell" x="550" y="85" width="13" height="13" fill="#ebedf0"/>
<rect class="cell" x="550" y="100" width="13" height="13" fill="#ebedf0"/>
<rect class="cell" x="550" y="115" width="13" height="13" fill="#ebedf0"/>
<rect class="cell" x="550" y="130" width="13" height="13" fill="#ebedf0"/>
<rect class="cell" x="565" y="40" width="13" height="13" fill="#ebedf0"/>
<rect class="cell" x="565" y="55" width="13" height="13" fill="#ebedf0"/>
<rect class="cell" x="565" y="70" width="13" height="13" fill="#ebedf0"/>
<rect class="cell" x="565" y="85" width="13" height="13" fill="#c6e48b"/>
<rect class="cell" x="565" y="100" width="13" height="13" fill="#ebedf0"/>
<rect class="cell" x="565" y="115" width="13" height="13" fill="#ebedf0"/>
<rect class="cell" x="565" y="130" width="13" height="13" fill="#ebedf0"/>
<rect class="cell" x="580" y="40" width="13" height="13" fill="#ebedf0"/>
<rect class="cell" x="580" y="55" width="13" height="13" fill="#ebedf0"/>
<rect class="cell" x="580" y="70" width="13" height="13" fill="#ebedf0"/>
<rect class="cell" x="580" y="85" width="13" height="13" fill="#ebedf0"/>
<rect class="cell" x="580" y="100" width="13" height="13" fill="#ebedf0"/>
<rect class="cell" x="580" y="115" width="13" height="13" fill="#ebedf0"/>
<rect class="cell" x="580" y="130" width="13" height="13" fill="#ebedf0"/>
<rect class="cell" x="595" y="40" width="13" height="13" fill="#ebedf0"/>
<rect class="cell" x="595" y="55" width="13" height="13" fill="#ebedf0"/>
<rect class="cell" x="595" y="70" width="13" height="13" fill="#108548"/>
<rect class="cell" x="595" y="85" width="13" height="13" fill="#239a3b"/>
<rect class="cell" x="595" y="100" width="13" height="13" fill="#239a3b"/>
<rect class="cell" x="595" y="115" width="13" height="13" fill="#ebedf0"/>
<rect class="cell" x="595" y="130" width="13" height="13" fill="#ebedf0"/>
<rect class="cell" x="610" y="40" width="13" height="13" fill="#ebedf0"/>
<rect class="cell" x="610" y="55" width="13" height="13" fill="#ebedf0"/>
<rect class="cell" x="610" y="70" width="13" height="13" fill="#ebedf0"/>
<rect class="cell" x="610" y="85" width="13" height="13" fill="#ebedf0"/>
<rect class="cell" x="610" y="100" width="13" height="13" fill="#ebedf0"/>
<rect class="cell" x="610" y="115" width="13" height="13" fill="#ebedf0"/>
<rect class="cell" x="610" y="130" width="13" height="13" fill="#ebedf0"/>
<rect class="cell" x="625" y="40" width="13" height="13" fill="#ebedf0"/>
<rect class="cell" x="625" y="55" width="13" height="13" fill="#ebedf0"/>
<rect class="cell" x="625" y="70" width="13" height="13" fill="#ebedf0"/>
<rect class="cell" x="625" y="85" width="13" height="13" fill="#ebedf0"/>
<rect class="cell" x="625" y="100" width="13" height="13" fill="#ebedf0"/>
<rect class="cell" x="625" y="115" width="13" height="13" fill="#ebedf0"/>
<rect class="cell" x="625" y="130" width="13" height="13" fill="#ebedf0"/>
<rect class="cell" x="640" y="40" width="13" height="13" fill="#ebedf0"/>
<rect class="cell" x="640" y="55" width="13" height="13" fill="#ebedf0"/>
<rect class="cell" x="640" y="70" width="13" height="13" fill="#ebedf0"/>
<rect class="cell" x="640" y="85" width="13" height="13" fill="#ebedf0"/>
<rect class="cell" x="640" y="100" width="13" height="13" fill="#ebedf0"/>
<rect class="cell" x="640" y="115" width="13" height="13" fill="#ebedf0"/>
<rect class="cell" x="640" y="130" width="13" height="13" fill="#ebedf0"/>
<rect class="cell" x="655" y="40" width="13" height="13" fill="#ebedf0"/>
<rect class="cell" x="655" y="55" width="13" height="13" fill="#ebedf0"/>
<rect class="cell" x="655" y="70" width="13" height="13" fill="#ebedf0"/>
<rect class="cell" x="655" y="85" width="13" height="13" fill="#ebedf0"/>
<rect class="cell" x="655" y="100" width="13" height="13" fill="#ebedf0"/>
<rect class="cell" x="655" y="115" width="13" height="13" fill="#ebedf0"/>
<rect class="cell" x="655" y="130" width="13" height="13" fill="#ebedf0"/>
<rect class="cell" x="670" y="40" width="13" height="13" fill="#ebedf0"/>
<rect class="cell" x="670" y="55" width="13" height="13" fill="#ebedf0"/>
<rect class="cell" x="670" y="70" width="13" height="13" fill="#ebedf0"/>
<rect class="cell" x="670" y="85" width="13" height="13" fill="#ebedf0"/>
<rect class="cell" x="670" y="100" width="13" height="13" fill="#ebedf0"/>
<rect class="cell" x="670" y="115" width="13" height="13" fill="#ebedf0"/>
<rect class="cell" x="670" y="130" width="13" height="13" fill="#ebedf0"/>
<rect class="cell" x="685" y="40" width="13" height="13" fill="#ebedf0"/>
<rect class="cell" x="685" y="55" width="13" height="13" fill="#ebedf0"/>
<rect class="cell" x="685" y="70" width="13" height="13" fill="#ebedf0"/>
<rect class="cell" x="685" y="85" width="13" height="13" fill="#ebedf0"/>
<rect class="cell" x="685" y="100" width="13" height="13" fill="#ebedf0"/>
<rect class="cell" x="685" y="115" width="13" height="13" fill="#ebedf0"/>
<rect class="cell" x="685" y="130" width="13" height="13" fill="#ebedf0"/>
<rect class="cell" x="700" y="40" width="13" height="13" fill="#ebedf0"/>
<rect class="cell" x="700" y="55" width="13" height="13" fill="#ebedf0"/>
<rect class="cell" x="700" y="70" width="13" height="13" fill="#ebedf0"/>
<rect class="cell" x="700" y="85" width="13" height="13" fill="#ebedf0"/>
<rect class="cell" x="700" y="100" width="13" height="13" fill="#ebedf0"/>
<rect class="cell" x="700" y="115" width="13" height="13" fill="#108548"/>
<rect class="cell" x="700" y="130" width="13" height="13" fill="#239a3b"/>
<rect class="cell" x="715" y="40" width="13" height="13" fill="#239a3b"/>
<rect class="cell" x="715" y="55" width="13" height="13" fill="#ebedf0"/>
<rect class="cell" x="715" y="70" width="13" height="13" fill="#ebedf0"/>
<rect class="cell" x="715" y="85" width="13" height="13" fill="#ebedf0"/>
<rect class="cell" x="715" y="100" width="13" height="13" fill="#ebedf0"/>
<rect class="cell" x="715" y="115" width="13" height="13" fill="#ebedf0"/>
<rect class="cell" x="715" y="130" width="13" height="13" fill="#ebedf0"/>
<rect class="cell" x="730" y="40" width="13" height="13" fill="#ebedf0"/>
<rect class="cell" x="730" y="55" width="13" height="13" fill="#ebedf0"/>
<rect class="cell" x="730" y="70" width="13" height="13" fill="#ebedf0"/>
<rect class="cell" x="730" y="85" width="13" height="13" fill="#ebedf0"/>
<rect class="cell" x="730" y="100" width="13" height="13" fill="#ebedf0"/>
<rect class="cell" x="730" y="115" width="13" height="13" fill="#ebedf0"/>
<rect class="cell" x="730" y="130" width="13" height="13" fill="#ebedf0"/>
<rect class="cell" x="745" y="40" width="13" height="13" fill="#ebedf0"/>
<rect class="cell" x="745" y="55" width="13" height="13" fill="#ebedf0"/>
<rect class="cell" x="745" y="70" width="13" height="13" fill="#ebedf0"/>
<rect class="cell" x="745" y="85" width="13" height="13" fill="#ebedf0"/>
<rect class="cell" x="745" y="100" width="13" height="13" fill="#ebedf0"/>
<rect class="cell" x="745" y="115" width="13" height="13" fill="#ebedf0"/>
<rect class="cell" x="745" y="130" width="13" height="13" fill="#ebedf0"/>
<rect class="cell" x="760" y="40" width="13" height="13" fill="#ebedf0"/>
<rect class="cell" x="760" y="55" width="13" height="13" fill="#ebedf0"/>
<rect class="cell" x="760" y="70" width="13" height="13" fill="#ebedf0"/>
<rect class="cell" x="760" y="85" width="13" height="13" fill="#ebedf0"/>
<rect class="cell" x="760" y="100" width="13" height="13" fill="#ebedf0"/>
<rect class="cell" x="760" y="115" width="13" height="13" fill="#ebedf0"/>
<rect class="cell" x="760" y="130" width="13" height="13" fill="#ebedf0"/>
<rect class="cell" x="775" y="40" width="13" height="13" fill="#ebedf0"/>
<rect class="cell" x="775" y="55" width="13" height="13" fill="#ebedf0"/>
<rect class="cell" x="775" y="70" width="13" height="13" fill="#ebedf0"/>
<rect class="cell" x="775" y="85" width="13" height="13" fill="#ebedf0"/>
<rect class="cell" x="775" y="100" width="13" height="13" fill="#ebedf0"/>
<rect class="cell" x="775" y="115" width="13" height="13" fill="#ebedf0"/>
<rect class="cell" x="775" y="130" width="13" height="13" fill="#ebedf0"/>
<rect class="cell" x="790" y="40" width="13" height="13" fill="#ebedf0"/>
<rect class="cell" x="790" y="55" width="13" height="13" fill="#ebedf0"/>
<rect class="cell" x="790" y="70" width="13" height="13" fill="#ebedf0"/>
<rect class="cell" x="790" y="85" width="13" height="13" fill="#ebedf0"/>
<rect class="cell" x="790" y="100" width="13" height="13" fill="#ebedf0"/>
<rect class="cell" x="790" y="115" width="13" height="13" fill="#ebedf0"/>
<rect class="cell" x="790" y="130" width="13" height="13" fill="#ebedf0"/>
<rect class="cell" x="805" y="40" width="13" height="13" fill="#ebedf0"/>
<rect class="cell" x="805" y="55" width="13" height="13" fill="#ebedf0"/>
<rect class="cell" x="805" y="70" width="13" height="13" fill="#ebedf0"/>
<rect class="cell" x="805" y="85" width="13" height="13" fill="#ebedf0"/>
<rect class="cell" x="805" y="100" width="13" height="13" fill="#ebedf0"/>
<rect class="cell" x="805" y="115" width="13" height="13" fill="#ebedf0"/>
<rect class="cell" x="805" y="130" width="13" height="13" fill="#ebedf0"/>
<rect class="cell" x="820" y="40" width="13" height="13" fill="#ebedf0"/>
<rect class="cell" x="820" y="55" width="13" height="13" fill="#108548"/>
<rect class="cell" x="820" y="70" width="13" height="13" fill="#239a3b"/>
<rect class="cell" x="820" y="85" width="13" height="13" fill="#108548"/>
<rect class="cell" x="820" y="100" width="13" height="13" fill="#ebedf0"/>
<rect class="cell" x="820" y="115" width="13" height="13" fill="#ebedf0"/>
<rect class="cell" x="820" y="130" width="13" height="13" fill="#ebedf0"/>
</g>
<text x="40" y="165" font-size="12" fill="#666">27 active days | Total: 415</text>
</svg>